Coordinates
version=1
nRows=27
nColumns=38
inDegrees=no

Units are S.I. units (second, meters, Newtons, ...)
If the header above contains a line with 'inDegrees', this indicates whether rotational values are in degrees (yes) or radians (no).

endheader
time	pelvis_tilt	pelvis_list	pelvis_rotation	pelvis_tx	pelvis_ty	pelvis_tz	hip_flexion_r	hip_adduction_r	hip_rotation_r	knee_angle_r	ankle_angle_r	subtalar_angle_r	mtp_angle_r	hip_flexion_l	hip_adduction_l	hip_rotation_l	knee_angle_l	ankle_angle_l	subtalar_angle_l	mtp_angle_l	lumbar_extension	lumbar_bending	lumbar_rotation	arm_flex_r	arm_add_r	arm_rot_r	elbow_flex_r	pro_sup_r	wrist_flex_r	wrist_dev_r	arm_flex_l	arm_add_l	arm_rot_l	elbow_flex_l	pro_sup_l	wrist_flex_l	wrist_dev_l
1.36	-0.696285	1.35092	-0.950918	0.870155	0.877467	0.983363	0.29916	0.1148	-0.0481476	0.48128	0.256489	0	0	-0.230725	-0.0668694	-0.268583	0.199613	0.198951	0	0	-0.374209	0.167293	0.00499909	0.553158	-0.506451	0.337227	1.03706	0.757634	0	0	0.333849	-0.25578	-0.0920984	1.1785	0.981257	0	0
1.37	-0.701479	1.34945	-0.942535	0.869904	0.867829	0.982385	0.307146	0.115854	-0.0639645	0.457533	0.255881	0	0	-0.241822	-0.0683864	-0.267115	0.200237	0.206519	0	0	-0.37314	0.170689	0.0036726	0.553822	-0.506738	0.33739	1.03707	0.759427	0	0	0.333198	-0.254623	-0.0939481	1.18026	0.981948	0	0
1.38	-0.706957	1.34774	-0.933736	0.869604	0.858018	0.98132	0.313824	0.117264	-0.0805712	0.432702	0.253891	0	0	-0.253543	-0.0700881	-0.265609	0.200179	0.21396	0	0	-0.371788	0.174588	0.00203584	0.554484	-0.506766	0.337523	1.03711	0.760868	0	0	0.332397	-0.253573	-0.0959303	1.18135	0.983395	0	0
1.39	-0.712189	1.34572	-0.924988	0.869264	0.848033	0.980178	0.319043	0.118997	-0.0983099	0.40693	0.251078	0	0	-0.265957	-0.0721279	-0.263877	0.199778	0.221528	0	0	-0.37027	0.178888	0.000440471	0.554541	-0.506639	0.336777	1.0371	0.762241	0	0	0.331952	-0.252579	-0.0970773	1.18127	0.984585	0	0
1.4	-0.716276	1.34353	-0.917232	0.868882	0.837896	0.978967	0.322723	0.120867	-0.116151	0.380398	0.248024	0	0	-0.279019	-0.0742469	-0.261838	0.199089	0.228999	0	0	-0.368753	0.183228	-0.00085953	0.553599	-0.506508	0.334603	1.03735	0.764204	0	0	0.332082	-0.251618	-0.09708	1.18022	0.985048	0	0
1.41	-0.717993	1.34128	-0.911413	0.868473	0.827582	0.977696	0.324713	0.122467	-0.134558	0.353099	0.244791	0	0	-0.292881	-0.0761871	-0.259317	0.197921	0.23621	0	0	-0.367317	0.187309	-0.002381	0.551935	-0.506234	0.33133	1.03768	0.76773	0	0	0.332317	-0.25082	-0.0965836	1.17901	0.985077	0	0
1.42	-0.717007	1.33914	-0.90768	0.868059	0.817071	0.976376	0.324883	0.123671	-0.153458	0.324854	0.241545	0	0	-0.307689	-0.0777847	-0.256153	0.195747	0.242754	0	0	-0.365941	0.191028	-0.004821	0.550386	-0.505529	0.327852	1.03785	0.773322	0	0	0.33219	-0.250172	-0.0963068	1.17818	0.985123	0	0
1.43	-0.714956	1.33786	-0.90491	0.86757	0.806357	0.974933	0.324197	0.124683	-0.171914	0.29611	0.238572	0	0	-0.322378	-0.0788745	-0.253373	0.193117	0.24882	0	0	-0.363792	0.194002	-0.00830554	0.549247	-0.504036	0.324895	1.03756	0.781924	0	0	0.331275	-0.249655	-0.0970279	1.17808	0.984788	0	0
1.44	-0.709852	1.33569	-0.903732	0.867168	0.79545	0.973519	0.319858	0.125951	-0.190547	0.264762	0.234616	0	0	-0.338616	-0.0805248	-0.249388	0.189839	0.254055	0	0	-0.362702	0.197482	-0.0139848	0.549214	-0.502978	0.326541	1.03817	0.77255	0	0	0.329879	-0.248494	-0.101227	1.17844	0.995497	0	0
1.45	-0.702542	1.33486	-0.904408	0.866758	0.78438	0.971943	0.315031	0.126398	-0.207106	0.233437	0.230422	0	0	-0.353978	-0.0812977	-0.245185	0.186927	0.259229	0	0	-0.360678	0.199731	-0.0203754	0.548545	-0.50115	0.325707	1.03784	0.775735	0	0	0.328181	-0.247845	-0.104489	1.17968	0.998573	0	0
1.46	-0.694747	1.33523	-0.905868	0.866277	0.773147	0.970208	0.310076	0.126522	-0.221611	0.202869	0.225476	0	0	-0.368177	-0.0815903	-0.241936	0.185024	0.264622	0	0	-0.357649	0.200925	-0.0259916	0.546598	-0.499886	0.324061	1.038	0.774647	0	0	0.326966	-0.247289	-0.106026	1.18057	0.997227	0	0
1.47	-0.692095	1.33554	-0.904442	0.864708	0.761671	0.968251	0.303598	0.125806	-0.24096	0.172968	0.221901	0	0	-0.381328	-0.0843779	-0.244363	0.185902	0.271656	0	0	-0.353804	0.200565	-0.0280575	0.541799	-0.496572	0.316795	1.03756	0.784781	0	0	0.326251	-0.24921	-0.10492	1.18192	1.00141	0	0
1.48	-0.673701	1.3345	-0.912246	0.865279	0.750145	0.966713	0.29259	0.127922	-0.246012	0.141113	0.212694	0	0	-0.39722	-0.0841715	-0.235766	0.184979	0.274777	0	0	-0.353286	0.203452	-0.0352723	0.539412	-0.499089	0.313874	1.03965	0.781112	0	0	0.327425	-0.247101	-0.102987	1.18057	1.00156	0	0
1.49	-0.669237	1.33678	-0.913152	0.863486	0.738332	0.96449	0.286247	0.126543	-0.256416	0.117572	0.209555	0	0	-0.407682	-0.0862466	-0.239168	0.189604	0.282162	0	0	-0.347757	0.201005	-0.0351361	0.532804	-0.496517	0.302941	1.03863	0.800195	0	0	0.328524	-0.249696	-0.0970501	1.18034	1.00241	0	0
1.5	-0.646894	1.33586	-0.923576	0.864126	0.72639	0.962907	0.273039	0.127428	-0.261061	0.0918634	0.20037	0	0	-0.4226	-0.0866631	-0.229377	0.192228	0.285056	0	0	-0.347032	0.203444	-0.0428907	0.530284	-0.499956	0.301076	1.03978	0.795234	0	0	0.330342	-0.246767	-0.0946298	1.17802	1.0035	0	0
1.51	-0.643385	1.34114	-0.925023	0.862164	0.714277	0.96039	0.271769	0.12378	-0.264326	0.0849544	0.202042	0	0	-0.428054	-0.0877316	-0.234217	0.202611	0.293245	0	0	-0.338799	0.199088	-0.0422452	0.524229	-0.497401	0.293471	1.03731	0.814119	0	0	0.330304	-0.247987	-0.0910035	1.17852	0.998444	0	0
1.52	-0.62938	1.34386	-0.932607	0.861532	0.702062	0.958287	0.267731	0.120607	-0.268285	0.0845555	0.203298	0	0	-0.436187	-0.0884346	-0.231534	0.21306	0.298112	0	0	-0.334217	0.197996	-0.0462264	0.521387	-0.498422	0.293729	1.03665	0.808803	0	0	0.330055	-0.245576	-0.091852	1.17848	1.0005	0	0
1.53	-0.604159	1.34272	-0.944943	0.862424	0.689721	0.95668	0.25838	0.118423	-0.274477	0.0875083	0.20194	0	0	-0.44697	-0.0907021	-0.220788	0.226139	0.301339	0	0	-0.334004	0.20145	-0.0565134	0.521886	-0.50213	0.297557	1.03631	0.799976	0	0	0.329708	-0.240745	-0.0949371	1.17815	1.00477	0	0
1.54	-0.597731	1.34799	-0.950067	0.860642	0.677096	0.954092	0.261705	0.111248	-0.276542	0.11176	0.210681	0	0	-0.449127	-0.0922746	-0.224298	0.245235	0.307315	0	0	-0.326072	0.197926	-0.0561572	0.518492	-0.501359	0.296953	1.03405	0.79726	0	0	0.328221	-0.241243	-0.0936149	1.17903	1.00573	0	0
1.55	-0.573196	1.34844	-0.963259	0.861502	0.664234	0.952279	0.254857	0.107676	-0.273588	0.130615	0.212209	0	0	-0.45542	-0.0946223	-0.21554	0.265832	0.310807	0	0	-0.323269	0.200921	-0.0647917	0.518299	-0.506048	0.300092	1.03318	0.79431	0	0	0.328052	-0.237579	-0.0922888	1.17623	1.00681	0	0
1.56	-0.565797	1.35251	-0.967721	0.859882	0.650903	0.94966	0.255662	0.100143	-0.28063	0.162486	0.225043	0	0	-0.455153	-0.0994645	-0.220878	0.293657	0.318128	0	0	-0.31451	0.199209	-0.0652024	0.514125	-0.507212	0.300877	1.03188	0.791659	0	0	0.327224	-0.23924	-0.0867154	1.17376	1.00733	0	0
1.57	-0.549973	1.35387	-0.975179	0.859505	0.637511	0.947468	0.249511	0.0959777	-0.286364	0.181359	0.228506	0	0	-0.455211	-0.106257	-0.221115	0.325835	0.323237	0	0	-0.308642	0.201102	-0.0701651	0.511046	-0.511151	0.303681	1.03322	0.786503	0	0	0.327559	-0.23869	-0.0809962	1.16899	1.00715	0	0
1.58	-0.529308	1.34962	-0.983162	0.860124	0.624574	0.946187	0.23297	0.0994492	-0.280775	0.176491	0.198904	0	0	-0.457346	-0.116769	-0.215127	0.36192	0.322664	0	0	-0.310055	0.208384	-0.0783425	0.511089	-0.517145	0.30816	1.03606	0.779422	0	0	0.329573	-0.235034	-0.078138	1.16317	1.0062	0	0
1.59	-0.546579	1.3483	-0.965798	0.857737	0.612153	0.944672	0.231292	0.101053	-0.297248	0.183129	0.145336	0	0	-0.447798	-0.134095	-0.227325	0.41113	0.322752	0	0	-0.308436	0.214261	-0.0739397	0.509292	-0.517447	0.306979	1.03735	0.779921	0	0	0.330522	-0.235207	-0.0743926	1.16128	0.991643	0	0
1.6	-0.556697	1.34207	-0.953179	0.857384	0.600851	0.945053	0.22655	0.110122	-0.285208	0.188314	0.0728373	0	0	-0.439105	-0.149702	-0.225497	0.460559	0.30835	0	0	-0.316667	0.226475	-0.0718692	0.514899	-0.521344	0.3106	1.03925	0.771388	0	0	0.332943	-0.228867	-0.078105	1.15835	0.99215	0	0
1.61	-0.602967	1.34258	-0.916746	0.854541	0.589631	0.944981	0.245285	0.110521	-0.301505	0.231243	0.0396696	0	0	-0.414729	-0.169147	-0.239298	0.523579	0.291398	0	0	-0.316029	0.235242	-0.0592254	0.518676	-0.52147	0.314009	1.03906	0.763207	0	0	0.333415	-0.226979	-0.0794681	1.15701	0.993309	0	0
1.62	-0.633773	1.34791	-0.890617	0.854139	0.57854	0.94527	0.270964	0.108443	-0.295493	0.287996	0.0345876	0	0	-0.383015	-0.179407	-0.235186	0.58942	0.264936	0	0	-0.31196	0.243083	-0.0539134	0.524924	-0.527247	0.325107	1.03999	0.743206	0	0	0.333848	-0.221782	-0.0813189	1.1512	1.0037	0	0
